<svg width="15" height="15" viewBox="0 0 15 15" fill="none" xmlns="http://www.w3.org/2000/svg">
<g opacity="0.5" clip-path="url(#clip0_770_5551)">
<path d="M3.71667 9.53011C3.17308 9.53011 2.90128 9.53011 2.68688 9.4413C2.40101 9.32289 2.17389 9.09577 2.05548 8.80991C1.96667 8.59551 1.96667 8.32371 1.96667 7.78011V3.81344C1.96667 3.16005 1.96667 2.83335 2.09383 2.58379C2.20569 2.36427 2.38416 2.18579 2.60369 2.07394C2.85325 1.94678 3.17995 1.94678 3.83334 1.94678H7.80001C8.34361 1.94678 8.61541 1.94678 8.82981 2.03558C9.11567 2.15399 9.34279 2.38111 9.4612 2.66698C9.55001 2.88138 9.55001 3.15318 9.55001 3.69678M7.91667 13.6134H11.7667C12.4201 13.6134 12.7468 13.6134 12.9963 13.4863C13.2159 13.3744 13.3943 13.196 13.5062 12.9764C13.6333 12.7269 13.6333 12.4002 13.6333 11.7468V7.89678C13.6333 7.24338 13.6333 6.91669 13.5062 6.66712C13.3943 6.4476 13.2159 6.26912 12.9963 6.15727C12.7468 6.03011 12.4201 6.03011 11.7667 6.03011H7.91667C7.26328 6.03011 6.93658 6.03011 6.68702 6.15727C6.4675 6.26912 6.28902 6.4476 6.17717 6.66712C6.05001 6.91669 6.05001 7.24338 6.05001 7.89678V11.7468C6.05001 12.4002 6.05001 12.7269 6.17717 12.9764C6.28902 13.196 6.4675 13.3744 6.68702 13.4863C6.93658 13.6134 7.26328 13.6134 7.91667 13.6134Z" stroke="white" stroke-width="1.4" stroke-linecap="round" stroke-linejoin="round"/>
</g>
<defs>
<clipPath id="clip0_770_5551">
<rect width="14" height="14" fill="white" transform="translate(0.799988 0.780029)"/>
</clipPath>
</defs>
</svg>
