<svg width="24" height="25" viewBox="0 0 24 25" fill="none" xmlns="http://www.w3.org/2000/svg">
<g opacity="0.5">
<path d="M12 13.78C12.5523 13.78 13 13.3323 13 12.78C13 12.2277 12.5523 11.78 12 11.78C11.4477 11.78 11 12.2277 11 12.78C11 13.3323 11.4477 13.78 12 13.78Z" stroke="white" stroke-width="2" stroke-linecap="round" stroke-linejoin="round"/>
<path d="M12 6.78003C12.5523 6.78003 13 6.33231 13 5.78003C13 5.22774 12.5523 4.78003 12 4.78003C11.4477 4.78003 11 5.22774 11 5.78003C11 6.33231 11.4477 6.78003 12 6.78003Z" stroke="white" stroke-width="2" stroke-linecap="round" stroke-linejoin="round"/>
<path d="M12 20.78C12.5523 20.78 13 20.3323 13 19.78C13 19.2277 12.5523 18.78 12 18.78C11.4477 18.78 11 19.2277 11 19.78C11 20.3323 11.4477 20.78 12 20.78Z" stroke="white" stroke-width="2" stroke-linecap="round" stroke-linejoin="round"/>
</g>
</svg>
