<svg width="20" height="20" viewBox="0 0 20 20" fill="none" xmlns="http://www.w3.org/2000/svg">
<g opacity="0.5">
<path d="M9.39438 4.25369C9.71951 4.20562 10.0549 4.17983 10.4004 4.17983C14.4844 4.17983 17.1643 7.78371 18.0646 9.20929C18.1736 9.38184 18.228 9.46811 18.2585 9.60117C18.2814 9.70111 18.2814 9.85876 18.2585 9.95869C18.228 10.0918 18.1731 10.1786 18.0634 10.3523C17.8235 10.732 17.4578 11.2655 16.9732 11.8442M6.17948 5.55186C4.44982 6.72519 3.27558 8.35534 2.73691 9.20806C2.62745 9.38133 2.57272 9.46797 2.54222 9.60102C2.5193 9.70095 2.51929 9.85859 2.54219 9.95852C2.57269 10.0916 2.62717 10.1778 2.73613 10.3504C3.63646 11.776 6.31635 15.3798 10.4004 15.3798C12.0471 15.3798 13.4655 14.7939 14.6311 14.0011M3.20036 2.57983L17.6004 16.9798M8.7033 8.08278C8.26899 8.51709 8.00036 9.11709 8.00036 9.77983C8.00036 11.1053 9.07487 12.1798 10.4004 12.1798C11.0631 12.1798 11.6631 11.9112 12.0974 11.4769" stroke="white" stroke-width="2" stroke-linecap="round" stroke-linejoin="round"/>
</g>
</svg>
