<svg width="12" height="12" viewBox="0 0 12 12" fill="none" xmlns="http://www.w3.org/2000/svg">
<g opacity="0.5">
<path d="M2 2.17844C2.00038 2.0595 2.04594 1.94068 2.13668 1.84993C2.13668 1.84993 2.11617 1.8677 2.15834 1.82937C2.16765 1.8209 2.1791 1.8109 2.19279 1.79963C2.22019 1.77707 2.25649 1.74945 2.3026 1.71871C2.39499 1.65712 2.52573 1.58368 2.70168 1.51329C3.05443 1.3722 3.58073 1.24658 4.33333 1.24658C5.12361 1.24658 5.77846 1.50861 6.34732 1.73622L6.37332 1.74663C6.96509 1.98334 7.46901 2.17992 8.06667 2.17992C8.71406 2.17992 9.12109 2.0722 9.35168 1.97996C9.46739 1.93368 9.54082 1.89045 9.57968 1.86454C9.59898 1.85168 9.61004 1.84289 9.61376 1.83984C9.79668 1.66775 10.0845 1.67112 10.2633 1.84993C10.3544 1.94105 10.4 2.06048 10.4 2.17992V7.77946C10.4001 7.89904 10.3546 8.01866 10.2633 8.1099L10.2628 8.11039C10.2452 8.12797 10.2264 8.14437 10.2072 8.1602C10.1798 8.18277 10.1435 8.21038 10.0974 8.24112C10.005 8.30272 9.87427 8.37615 9.69832 8.44654C9.34557 8.58764 8.81927 8.71325 8.06667 8.71325C7.27639 8.71325 6.62154 8.45122 6.05268 8.22361L6.02668 8.2132C5.43491 7.97649 4.93099 7.77992 4.33333 7.77992C3.68593 7.77992 3.27891 7.88763 3.04832 7.97987C3.00391 7.99763 2.96572 8.01495 2.93333 8.03101L2.93333 11.0466C2.93333 11.3043 2.7244 11.5132 2.46667 11.5132C2.20893 11.5132 2 11.3043 2 11.0466L2 7.78003C2 7.78002 2 7.78004 2 7.78003L2 2.17992C2 2.17945 2 2.1789 2 2.17844Z" fill="white"/>
</g>
</svg>
