<svg width="32" height="32" viewBox="0 0 32 32" fill="none" xmlns="http://www.w3.org/2000/svg">
<rect width="32" height="32" rx="16" fill="#E61E1E"/>
<path fill-rule="evenodd" clip-rule="evenodd" d="M11.135 10.9423C12.541 9.76256 14.2674 9.17255 15.9979 9.17255L15.9975 9.1709C17.7281 9.1709 19.4617 9.76092 20.8677 10.9407C21.714 11.6508 22.3661 12.5147 22.8192 13.4608C22.8296 13.4594 22.8399 13.4579 22.8501 13.4564C22.903 13.4487 22.9551 13.4412 23.0097 13.4412C24.14 13.4412 25.05 14.3512 25.05 15.4814V18.003C25.05 19.1332 24.14 20.0433 23.0097 20.0433C22.9662 20.0433 22.9242 20.0376 22.8823 20.032C22.8589 20.0289 22.8355 20.0257 22.8119 20.0236C22.7312 20.1907 22.6484 20.358 22.5544 20.5209V20.5269C22.5103 20.6287 21.541 22.8289 19.2999 22.8289L15.1083 22.8286C14.6189 22.8286 14.405 22.5727 14.405 22.2356C14.405 21.6892 14.8446 21.2482 15.391 21.2482H16.6096C16.9484 21.2482 17.2322 21.4285 17.4094 21.6874L19.2999 21.7043C20.7934 21.7043 21.5539 20.0218 21.5539 20.0218L21.5652 19.9937L21.5821 19.9656C23.1481 17.2532 22.5416 13.8163 20.1424 11.8031C17.7432 9.78994 14.2584 9.78994 11.8592 11.8031C9.46009 13.8163 8.85363 17.2533 10.4196 19.9656C10.802 20.6206 9.81159 21.1871 9.44087 20.5255C9.34603 20.3611 9.26189 20.1938 9.18057 20.0252C9.15705 20.0273 9.13378 20.0306 9.11047 20.0339C9.0713 20.0394 9.03204 20.0449 8.99146 20.0449C7.86122 20.0449 6.95117 19.1348 6.95117 18.0046V15.483C6.95117 14.3528 7.86122 13.4428 8.99146 13.4428C9.03297 13.4428 9.07309 13.4484 9.11316 13.454C9.13557 13.4572 9.15796 13.4603 9.18057 13.4625C9.63478 12.5164 10.2888 11.6524 11.135 10.9423Z" fill="white"/>
<path fill-rule="evenodd" clip-rule="evenodd" d="M13.5389 12.7572C13.0996 12.7285 12.6984 12.8214 12.3479 13.1905C11.413 14.1747 10.8355 15.5143 10.8355 16.9409C10.8355 18.1177 11.2287 19.4362 11.8912 19.4843C12.835 19.553 14.3244 18.9332 16.0008 18.9332C17.7774 18.9332 19.345 19.6286 20.2748 19.464C20.8382 19.3644 21.1676 18.0176 21.1676 16.9409C21.1676 15.5143 20.5887 14.1747 19.6538 13.1905C18.7189 12.2063 17.4274 13.1905 16.0008 13.1905C15.1092 13.1905 14.2709 12.8052 13.5389 12.7572ZM14.2733 16.1266C14.2731 15.6054 13.8507 15.183 13.3295 15.1828C12.8083 15.183 12.3859 15.6054 12.3857 16.1266C12.3859 16.6478 12.8083 17.0702 13.3295 17.0704C13.8507 17.0702 14.2731 16.6478 14.2733 16.1266ZM19.6161 16.1266C19.6159 15.6054 19.1934 15.183 18.6723 15.1828C18.1511 15.183 17.7287 15.6054 17.7285 16.1266C17.7287 16.6478 18.1511 17.0702 18.6723 17.0704C19.1934 17.0702 19.6159 16.6478 19.6161 16.1266Z" fill="white"/>
</svg>
