<svg width="32" height="33" viewBox="0 0 32 33" fill="none" xmlns="http://www.w3.org/2000/svg">
<rect y="0.780029" width="32" height="32" rx="16" fill="#FF681F"/>
<path fill-rule="evenodd" clip-rule="evenodd" d="M11.135 11.7223C12.541 10.5426 14.2674 9.95258 15.9979 9.95258L15.9975 9.95093C17.7281 9.95093 19.4617 10.541 20.8677 11.7207C21.714 12.4308 22.3661 13.2947 22.8192 14.2409C22.8296 14.2394 22.8399 14.2379 22.8501 14.2364C22.903 14.2288 22.9551 14.2212 23.0097 14.2212C24.14 14.2212 25.05 15.1312 25.05 16.2614V18.783C25.05 19.9133 24.14 20.8233 23.0097 20.8233C22.9662 20.8233 22.9242 20.8177 22.8823 20.812C22.8589 20.8089 22.8355 20.8058 22.8119 20.8036C22.7312 20.9707 22.6484 21.138 22.5544 21.3009V21.3069C22.5103 21.4088 21.541 23.609 19.2999 23.609L15.1083 23.6086C14.6189 23.6086 14.405 23.3527 14.405 23.0157C14.405 22.4692 14.8446 22.0282 15.391 22.0282H16.6096C16.9484 22.0282 17.2322 22.2085 17.4094 22.4674L19.2999 22.4843C20.7934 22.4843 21.5539 20.8018 21.5539 20.8018L21.5652 20.7737L21.5821 20.7456C23.1481 18.0332 22.5416 14.5963 20.1424 12.5832C17.7432 10.57 14.2584 10.57 11.8592 12.5832C9.46009 14.5963 8.85363 18.0333 10.4196 20.7456C10.802 21.4007 9.81159 21.9672 9.44087 21.3055C9.34603 21.1411 9.26189 20.9738 9.18057 20.8052C9.15705 20.8073 9.13378 20.8106 9.11047 20.8139C9.0713 20.8194 9.03204 20.8249 8.99146 20.8249C7.86122 20.8249 6.95117 19.9149 6.95117 18.7847V16.2631C6.95117 15.1328 7.86122 14.2228 8.99146 14.2228C9.03297 14.2228 9.07309 14.2284 9.11316 14.234C9.13557 14.2372 9.15796 14.2403 9.18057 14.2425C9.63478 13.2964 10.2888 12.4324 11.135 11.7223Z" fill="white"/>
<path fill-rule="evenodd" clip-rule="evenodd" d="M13.5389 13.5372C13.0996 13.5085 12.6984 13.6014 12.3479 13.9706C11.413 14.9548 10.8355 16.2944 10.8355 17.721C10.8355 18.8977 11.2287 20.2163 11.8912 20.2644C12.835 20.333 14.3244 19.7132 16.0008 19.7132C17.7774 19.7132 19.345 20.4086 20.2748 20.244C20.8382 20.1444 21.1676 18.7976 21.1676 17.721C21.1676 16.2944 20.5887 14.9548 19.6538 13.9706C18.7189 12.9863 17.4274 13.9706 16.0008 13.9706C15.1092 13.9706 14.2709 13.5853 13.5389 13.5372ZM14.2733 16.9066C14.2731 16.3854 13.8507 15.963 13.3295 15.9628C12.8083 15.963 12.3859 16.3854 12.3857 16.9066C12.3859 17.4278 12.8083 17.8502 13.3295 17.8504C13.8507 17.8502 14.2731 17.4278 14.2733 16.9066ZM19.6161 16.9066C19.6159 16.3854 19.1934 15.963 18.6723 15.9628C18.1511 15.963 17.7287 16.3854 17.7285 16.9066C17.7287 17.4278 18.1511 17.8502 18.6723 17.8504C19.1934 17.8502 19.6159 17.4278 19.6161 16.9066Z" fill="white"/>
</svg>
