<svg width="20" height="20" viewBox="0 0 20 20" fill="none" xmlns="http://www.w3.org/2000/svg">
<g opacity="0.5">
<path fill-rule="evenodd" clip-rule="evenodd" d="M4.80015 6.58003C4.80015 3.92906 6.94918 1.78003 9.60015 1.78003C12.2511 1.78003 14.4001 3.92906 14.4001 6.58003V7.50029C14.6262 7.54983 14.8432 7.62197 15.0529 7.72881C15.655 8.0356 16.1446 8.52514 16.4514 9.12726C16.6492 9.51553 16.7281 9.92889 16.7648 10.3786C16.8002 10.8115 16.8002 11.343 16.8001 11.987V13.1731C16.8002 13.8171 16.8002 14.3485 16.7648 14.7815C16.7281 15.2312 16.6492 15.6445 16.4514 16.0328C16.1446 16.6349 15.655 17.1245 15.0529 17.4313C14.6646 17.6291 14.2513 17.7079 13.8016 17.7447C13.3686 17.7801 12.8372 17.78 12.1932 17.78H7.00713C6.36314 17.78 5.83165 17.7801 5.39869 17.7447C4.94901 17.7079 4.53565 17.6291 4.14738 17.4313C3.54526 17.1245 3.05572 16.6349 2.74893 16.0328C2.55109 15.6445 2.47224 15.2312 2.4355 14.7815C2.40013 14.3485 2.40014 13.817 2.40015 13.1731V11.987C2.40014 11.343 2.40013 10.8115 2.4355 10.3786C2.47224 9.92889 2.55109 9.51553 2.74893 9.12726C3.05572 8.52514 3.54526 8.0356 4.14738 7.72881C4.35706 7.62197 4.57406 7.54983 4.80015 7.50029V6.58003ZM12.8001 6.58003V7.38133H6.40015V6.58003C6.40015 4.81272 7.83284 3.38003 9.60015 3.38003C11.3675 3.38003 12.8001 4.81272 12.8001 6.58003ZM10.4001 11.78C10.4001 11.3382 10.042 10.98 9.60015 10.98C9.15832 10.98 8.80015 11.3382 8.80015 11.78V13.38C8.80015 13.8219 9.15832 14.18 9.60015 14.18C10.042 14.18 10.4001 13.8219 10.4001 13.38V11.78Z" fill="white"/>
</g>
</svg>
