<svg width="20" height="20" viewBox="0 0 20 20" fill="none" xmlns="http://www.w3.org/2000/svg">
<g opacity="0.5">
<path d="M1.70686 6.72523C1.46692 6.55384 1.34695 6.46814 1.24235 6.45702C1.08593 6.44038 0.929164 6.52105 0.851785 6.65801C0.800042 6.74959 0.800045 6.8954 0.800049 7.18703V12.3731C0.800039 13.0171 0.800031 13.5486 0.835405 13.9815C0.872145 14.4312 0.950996 14.8446 1.14883 15.2328C1.45562 15.835 1.94516 16.3245 2.54728 16.6313C2.93555 16.8291 3.34891 16.908 3.79859 16.9447C4.23154 16.9801 4.76302 16.9801 5.40699 16.9801H13.7931C14.4371 16.9801 14.9686 16.9801 15.4015 16.9447C15.8512 16.908 16.2646 16.8291 16.6528 16.6313C17.2549 16.3245 17.7445 15.835 18.0513 15.2328C18.2491 14.8446 18.328 14.4312 18.3647 13.9815C18.4001 13.5486 18.4001 13.0171 18.4 12.3731V7.18702C18.4001 7.04409 18.4001 6.97262 18.387 6.92271C18.3278 6.69709 18.0825 6.56857 17.8633 6.64833C17.8148 6.66597 17.7553 6.70716 17.6363 6.78955L11.4426 11.0776C11.0034 11.3826 10.6178 11.6504 10.1798 11.7566C9.79667 11.8494 9.39655 11.8465 9.01482 11.748C8.57839 11.6354 8.19679 11.362 7.76217 11.0506L1.70686 6.72523Z" fill="white"/>
<path d="M17.7063 4.79505C17.854 4.69281 17.9278 4.64169 17.9732 4.55947C18.0084 4.49562 18.0285 4.39451 18.0205 4.32204C18.0101 4.22871 17.9704 4.16709 17.8911 4.04386C17.5872 3.57179 17.1499 3.18212 16.6528 2.92886C16.2646 2.73103 15.8512 2.65217 15.4015 2.61543C14.9686 2.58006 14.4371 2.58007 13.7931 2.58008H5.40701C4.76304 2.58007 4.23154 2.58006 3.79859 2.61543C3.34891 2.65217 2.93555 2.73103 2.54728 2.92886C2.10005 3.15673 1.71349 3.48616 1.41954 3.88676C1.32706 4.01279 1.28082 4.07581 1.26559 4.17144C1.25367 4.24623 1.27031 4.35013 1.30498 4.41747C1.34931 4.50357 1.4262 4.55849 1.57999 4.66834L8.60008 9.68269C9.18185 10.0982 9.30531 10.1705 9.41456 10.1987C9.5418 10.2316 9.67518 10.2325 9.80289 10.2016C9.91254 10.175 10.037 10.1045 10.6249 9.69758L17.7063 4.79505Z" fill="white"/>
</g>
</svg>
