<svg width="12" height="12" viewBox="0 0 12 12" fill="none" xmlns="http://www.w3.org/2000/svg">
<g opacity="0.5">
<path d="M9.04082 3.7411C8.36464 3.06445 7.43157 2.64671 6.40004 2.64671C4.33818 2.64671 2.66671 4.31818 2.66671 6.38005C2.66671 8.44191 4.33818 10.1134 6.40004 10.1134C8.10138 10.1134 9.53804 8.97494 9.98751 7.41733C10.059 7.1697 10.3176 7.02688 10.5653 7.09834C10.8129 7.1698 10.9557 7.42847 10.8843 7.6761C10.3226 9.62248 8.52825 11.0467 6.40004 11.0467C3.82271 11.0467 1.73337 8.95738 1.73337 6.38005C1.73337 3.80272 3.82271 1.71338 6.40004 1.71338C7.68916 1.71338 8.85694 2.2367 9.70101 3.08136C9.99785 3.37839 10.3173 3.74698 10.6 4.09074V2.64671C10.6 2.38898 10.8089 2.18005 11.0667 2.18005C11.3244 2.18005 11.5333 2.38898 11.5333 2.64671V5.44671C11.5333 5.70445 11.3244 5.91338 11.0667 5.91338H8.26666C8.00893 5.91338 7.79999 5.70445 7.79999 5.44671C7.79999 5.18898 8.00893 4.98005 8.26666 4.98005H10.119C9.79974 4.57938 9.39747 4.09799 9.04082 3.7411Z" fill="white"/>
</g>
</svg>
