<svg width="20" height="20" viewBox="0 0 20 20" fill="none" xmlns="http://www.w3.org/2000/svg">
<path d="M18.4386 10.554C18.6112 10.2048 18.6112 9.79514 18.4386 9.44597C18.2866 9.13852 18.0198 8.97731 17.8816 8.89954C17.7328 8.81581 17.5421 8.73003 17.352 8.64451L3.36552 2.35063C3.17099 2.26305 2.97706 2.17575 2.81347 2.11908C2.66328 2.06705 2.36088 1.972 2.02608 2.06515C1.64773 2.17043 1.34085 2.44739 1.19746 2.813C1.07058 3.13653 1.13423 3.44705 1.17063 3.60178C1.21029 3.77032 1.27733 3.97219 1.34457 4.17467L2.6983 8.25327C2.8073 8.58166 2.8618 8.74586 2.96315 8.86727C3.05264 8.97448 3.16764 9.05748 3.29759 9.10865C3.44474 9.16659 3.61774 9.16659 3.96375 9.16659H10.0002C10.4604 9.16659 10.8335 9.53968 10.8335 9.99992C10.8335 10.4602 10.4604 10.8333 10.0002 10.8333H3.97951C3.63437 10.8333 3.46181 10.8333 3.31492 10.891C3.1852 10.9419 3.07034 11.0246 2.98084 11.1314C2.87949 11.2524 2.82471 11.416 2.71515 11.7433L1.35052 15.8196C1.28255 16.0225 1.21484 16.2247 1.17467 16.3934C1.13785 16.5481 1.07314 16.8592 1.19968 17.1835C1.34258 17.5498 1.64948 17.8275 2.02819 17.9332C2.36354 18.0268 2.66662 17.9314 2.81686 17.8794C2.98078 17.8226 3.17519 17.7351 3.37036 17.6472L17.352 11.3555C17.5421 11.2699 17.7328 11.1842 17.8816 11.1004C18.0198 11.0227 18.2866 10.8615 18.4386 10.554Z" fill="#E61E1E"/>
</svg>
