<svg width="17" height="15" viewBox="0 0 17 15" fill="none" xmlns="http://www.w3.org/2000/svg">
<path fill-rule="evenodd" clip-rule="evenodd" d="M0 0.749999C0 0.335786 0.345962 0 0.772727 0H16.2273C16.654 0 17 0.335786 17 0.749999C17 1.16421 16.654 1.5 16.2273 1.5V6.93098C16.2273 7.5347 16.2273 8.03297 16.1931 8.43886C16.1576 8.86043 16.0815 9.24796 15.8904 9.61196C15.594 10.1764 15.1212 10.6354 14.5396 10.923C14.1646 11.1085 13.7653 11.1824 13.331 11.2168C12.9128 11.25 12.3994 11.25 11.7773 11.25H10.6343L13.6311 13.6738C13.9589 13.939 14.0032 14.4119 13.73 14.7301C13.4568 15.0483 12.9695 15.0913 12.6417 14.8261L9.27273 12.1013V14.25C9.27273 14.6642 8.92676 15 8.5 15C8.07323 15 7.72727 14.6642 7.72727 14.25V12.1013L4.35834 14.8261C4.03049 15.0913 3.54324 15.0483 3.27003 14.7301C2.99682 14.4119 3.04112 13.939 3.36897 13.6738L6.36571 11.25H5.22265C4.60062 11.25 4.08724 11.25 3.66904 11.2168C3.2347 11.1824 2.83543 11.1085 2.46039 10.923C1.8788 10.6354 1.40595 10.1764 1.10962 9.61196C0.918529 9.24796 0.842366 8.86043 0.806878 8.43886C0.77271 8.03297 0.772718 7.53469 0.772728 6.93097L0.772727 1.5C0.345962 1.5 0 1.16421 0 0.749999ZM12.3636 3.75C12.3636 3.33578 12.0177 3 11.5909 3C11.1641 3 10.8182 3.33578 10.8182 3.75V7.49999C10.8182 7.9142 11.1641 8.24999 11.5909 8.24999C12.0177 8.24999 12.3636 7.9142 12.3636 7.49999V3.75ZM8.5 4.49999C8.92677 4.49999 9.27273 4.83578 9.27273 5.24999V7.49999C9.27273 7.9142 8.92677 8.24999 8.5 8.24999C8.07323 8.24999 7.72727 7.9142 7.72727 7.49999V5.24999C7.72727 4.83578 8.07323 4.49999 8.5 4.49999ZM5.40909 5.99999C5.83586 5.99999 6.18182 6.33578 6.18182 6.74999V7.49999C6.18182 7.9142 5.83586 8.24999 5.40909 8.24999C4.98233 8.24999 4.63636 7.9142 4.63636 7.49999V6.74999C4.63636 6.33578 4.98233 5.99999 5.40909 5.99999Z" fill="#E61E1E"/>
</svg>
