<svg width="17" height="16" viewBox="0 0 17 16" fill="none" xmlns="http://www.w3.org/2000/svg">
<path fill-rule="evenodd" clip-rule="evenodd" d="M0 1.53003C0 1.11582 0.345962 0.780029 0.772727 0.780029H16.2273C16.654 0.780029 17 1.11582 17 1.53003C17 1.94424 16.654 2.28003 16.2273 2.28003V7.71101C16.2273 8.31473 16.2273 8.813 16.1931 9.21889C16.1576 9.64046 16.0815 10.028 15.8904 10.392C15.594 10.9565 15.1212 11.4154 14.5396 11.703C14.1646 11.8885 13.7653 11.9624 13.331 11.9969C12.9128 12.03 12.3994 12.03 11.7773 12.03H10.6343L13.6311 14.4538C13.9589 14.719 14.0032 15.1919 13.73 15.5101C13.4568 15.8284 12.9695 15.8713 12.6417 15.6062L9.27273 12.8813V15.03C9.27273 15.4442 8.92676 15.78 8.5 15.78C8.07323 15.78 7.72727 15.4442 7.72727 15.03V12.8813L4.35834 15.6062C4.03049 15.8713 3.54324 15.8284 3.27003 15.5101C2.99682 15.1919 3.04112 14.719 3.36897 14.4538L6.36571 12.03H5.22265C4.60062 12.03 4.08724 12.03 3.66904 11.9969C3.2347 11.9624 2.83543 11.8885 2.46039 11.703C1.8788 11.4154 1.40595 10.9565 1.10962 10.392C0.918529 10.028 0.842366 9.64046 0.806878 9.21889C0.77271 8.81299 0.772718 8.31472 0.772728 7.71099L0.772727 2.28003C0.345962 2.28003 0 1.94424 0 1.53003ZM12.3636 4.53002C12.3636 4.11581 12.0177 3.78003 11.5909 3.78003C11.1641 3.78003 10.8182 4.11581 10.8182 4.53002V8.28002C10.8182 8.69423 11.1641 9.03002 11.5909 9.03002C12.0177 9.03002 12.3636 8.69423 12.3636 8.28002V4.53002ZM8.5 5.28002C8.92677 5.28002 9.27273 5.61581 9.27273 6.03002V8.28002C9.27273 8.69423 8.92677 9.03002 8.5 9.03002C8.07323 9.03002 7.72727 8.69423 7.72727 8.28002V6.03002C7.72727 5.61581 8.07323 5.28002 8.5 5.28002ZM5.40909 6.78002C5.83586 6.78002 6.18182 7.11581 6.18182 7.53002V8.28002C6.18182 8.69423 5.83586 9.03002 5.40909 9.03002C4.98233 9.03002 4.63636 8.69423 4.63636 8.28002V7.53002C4.63636 7.11581 4.98233 6.78002 5.40909 6.78002Z" fill="#FF681F"/>
</svg>
