<svg width="19" height="19" viewBox="0 0 19 19" fill="none" xmlns="http://www.w3.org/2000/svg">
<path fill-rule="evenodd" clip-rule="evenodd" d="M9.33334 1.53003C4.77699 1.53003 1.08334 5.22368 1.08334 9.78003C1.08334 14.3364 4.77699 18.03 9.33334 18.03C13.8897 18.03 17.5833 14.3364 17.5833 9.78003C17.5833 5.22368 13.8897 1.53003 9.33334 1.53003ZM4.83334 9.78003C4.83334 7.29475 6.84806 5.28003 9.33334 5.28003C9.6056 5.28003 9.8716 5.30412 10.1295 5.35011C10.5373 5.42283 10.9268 5.1512 10.9995 4.74342C11.0722 4.33564 10.8006 3.94612 10.3928 3.87341C10.0484 3.81199 9.69429 3.78003 9.33334 3.78003C6.01964 3.78003 3.33334 6.46632 3.33334 9.78003C3.33334 11.0538 3.73112 12.2369 4.40922 13.2091C4.64619 13.5488 5.1137 13.6321 5.45343 13.3952C5.79317 13.1582 5.87647 12.6907 5.6395 12.351C5.13129 11.6224 4.83334 10.7371 4.83334 9.78003ZM15.1952 8.49502C15.1069 8.09034 14.7072 7.83391 14.3025 7.92227C13.8978 8.01062 13.6414 8.4103 13.7298 8.81498C13.7975 9.1252 13.8333 9.448 13.8333 9.78004C13.8333 10.7371 13.5354 11.6223 13.0272 12.3509C12.7902 12.6907 12.8735 13.1582 13.2133 13.3951C13.553 13.6321 14.0205 13.5488 14.2575 13.2091C14.9356 12.2369 15.3333 11.0538 15.3333 9.78004C15.3333 9.33974 15.2858 8.90968 15.1952 8.49502ZM13.2386 6.93536C13.5315 6.64247 13.5315 6.16759 13.2386 5.8747C12.9457 5.58181 12.4708 5.58181 12.1779 5.8747L9.7218 8.33082C9.59791 8.29769 9.46769 8.28003 9.33334 8.28003C8.50492 8.28003 7.83334 8.9516 7.83334 9.78003C7.83334 10.6085 8.50492 11.28 9.33334 11.28C10.1618 11.28 10.8333 10.6085 10.8333 9.78003C10.8333 9.64563 10.8157 9.51537 10.7825 9.39142L13.2386 6.93536Z" fill="#FF681F"/>
</svg>
