<svg width="19" height="18" viewBox="0 0 19 18" fill="none" xmlns="http://www.w3.org/2000/svg">
<path fill-rule="evenodd" clip-rule="evenodd" d="M9.6665 0.75C5.11015 0.75 1.4165 4.44365 1.4165 9C1.4165 13.5563 5.11015 17.25 9.6665 17.25C14.2229 17.25 17.9165 13.5563 17.9165 9C17.9165 4.44365 14.2229 0.75 9.6665 0.75ZM5.1665 9C5.1665 6.51472 7.18122 4.5 9.6665 4.5C9.93876 4.5 10.2048 4.52409 10.4627 4.57008C10.8704 4.6428 11.26 4.37117 11.3327 3.96339C11.4054 3.55561 11.1338 3.16609 10.726 3.09338C10.3816 3.03196 10.0274 3 9.6665 3C6.3528 3 3.6665 5.68629 3.6665 9C3.6665 10.2738 4.06428 11.4569 4.74238 12.4291C4.97935 12.7688 5.44686 12.8521 5.78659 12.6151C6.12633 12.3782 6.20963 11.9107 5.97266 11.5709C5.46445 10.8423 5.1665 9.95708 5.1665 9ZM15.5284 7.715C15.4401 7.31031 15.0404 7.05388 14.6357 7.14224C14.231 7.23059 13.9746 7.63027 14.0629 8.03496C14.1307 8.34517 14.1665 8.66797 14.1665 9.00001C14.1665 9.95708 13.8686 10.8423 13.3604 11.5709C13.1234 11.9106 13.2067 12.3781 13.5464 12.6151C13.8862 12.8521 14.3537 12.7688 14.5906 12.429C15.2687 11.4569 15.6665 10.2738 15.6665 9.00001C15.6665 8.55971 15.6189 8.12965 15.5284 7.715ZM13.5717 6.15533C13.8646 5.86244 13.8646 5.38756 13.5717 5.09467C13.2788 4.80178 12.804 4.80178 12.5111 5.09467L10.055 7.55079C9.93107 7.51766 9.80085 7.5 9.6665 7.5C8.83808 7.5 8.1665 8.17157 8.1665 9C8.1665 9.82843 8.83808 10.5 9.6665 10.5C10.4949 10.5 11.1665 9.82843 11.1665 9C11.1665 8.8656 11.1488 8.73534 11.1157 8.61139L13.5717 6.15533Z" fill="#E61E1E"/>
</svg>
