<svg width="12" height="12" viewBox="0 0 12 12" fill="none" xmlns="http://www.w3.org/2000/svg">
<g opacity="0.5">
<path d="M5.58263 1.24658C5.24662 1.24658 4.94213 1.44446 4.80567 1.75151L3.23732 5.2803C3.19927 5.36591 3.1794 5.41007 3.16311 5.44115L3.16166 5.44389L3.15857 5.4441C3.12355 5.44636 3.07513 5.44658 2.98145 5.44658H2.6087C2.3627 5.44657 2.15048 5.44657 1.97568 5.46085C1.79118 5.47592 1.60768 5.5092 1.4311 5.59917C1.16767 5.7334 0.953502 5.94757 0.819279 6.211C0.729309 6.38757 0.696028 6.57107 0.680954 6.75557C0.666673 6.93036 0.666679 7.14258 0.666687 7.38858V9.57124C0.666679 9.81723 0.666673 10.0295 0.680954 10.2043C0.696028 10.3888 0.729309 10.5723 0.819279 10.7488C0.953502 11.0123 1.16767 11.2264 1.4311 11.3607C1.60768 11.4506 1.79118 11.4839 1.97568 11.499C2.15047 11.5133 2.36269 11.5133 2.60869 11.5132C2.82482 11.5132 3.00002 11.338 3.00002 11.1219L3.00002 7.31325C3.00002 7.05552 3.20895 6.84658 3.46669 6.84658C3.72442 6.84658 3.93335 7.05552 3.93335 7.31325L3.93335 10.7666C3.93335 11.0279 3.93335 11.1586 3.98422 11.2584C4.02896 11.3463 4.10035 11.4176 4.18816 11.4624C4.28798 11.5132 4.41866 11.5132 4.68002 11.5132H7.62917C7.95526 11.5133 8.22599 11.5133 8.44874 11.4963C8.68132 11.4786 8.89571 11.4406 9.10269 11.3468C9.42636 11.2002 9.70144 10.9642 9.89561 10.6666C10.0198 10.4763 10.0899 10.2701 10.1428 10.043C10.1934 9.82539 10.2346 9.55781 10.2841 9.23553L10.5341 7.61082C10.5998 7.18385 10.6536 6.83379 10.6727 6.54811C10.6923 6.25335 10.6795 5.97831 10.5789 5.71468C10.4245 5.30988 10.1341 4.9714 9.75753 4.75724C9.51226 4.61777 9.24237 4.56325 8.94805 4.53785C8.66278 4.51324 8.30863 4.51324 7.87661 4.51325H7.48002C7.34164 4.51325 7.26592 4.51289 7.21152 4.50844L7.20536 4.50791L7.20483 4.50175C7.20038 4.44735 7.20002 4.37163 7.20002 4.23325V2.86397C7.20002 1.97071 6.47589 1.24658 5.58263 1.24658Z" fill="white"/>
</g>
</svg>
