<svg width="12" height="12" viewBox="0 0 12 12" fill="none" xmlns="http://www.w3.org/2000/svg">
<g opacity="0.5">
<path d="M5.78264 11.5134C5.44664 11.5134 5.14215 11.3155 5.00568 11.0085L3.43733 7.47971C3.39928 7.3941 3.37941 7.34994 3.36312 7.31886L3.36168 7.31612L3.35858 7.31591C3.32356 7.31365 3.27515 7.31343 3.18146 7.31343H2.80871C2.56271 7.31344 2.35049 7.31344 2.17569 7.29916C1.99119 7.28409 1.80769 7.25081 1.63111 7.16084C1.36769 7.02661 1.15351 6.81244 1.01929 6.54901C0.929321 6.37244 0.89604 6.18894 0.880966 6.00444C0.866685 5.82965 0.866692 5.61743 0.8667 5.37143V3.18877C0.866692 2.94278 0.866685 2.73054 0.880966 2.55575C0.89604 2.37125 0.929321 2.18775 1.01929 2.01117C1.15351 1.74775 1.36769 1.53358 1.63111 1.39935C1.80769 1.30938 1.99119 1.2761 2.17569 1.26103C2.35049 1.24675 2.5627 1.24675 2.8087 1.24676C3.02483 1.24676 3.20003 1.42197 3.20003 1.63809L3.20003 5.44676C3.20003 5.70449 3.40897 5.91343 3.6667 5.91343C3.92443 5.91343 4.13337 5.70449 4.13337 5.44676L4.13337 1.99343C4.13337 1.73207 4.13337 1.60139 4.18423 1.50156C4.22897 1.41376 4.30036 1.34237 4.38817 1.29762C4.488 1.24676 4.61867 1.24676 4.88003 1.24676H7.82918C8.15527 1.24676 8.426 1.24675 8.64876 1.26371C8.88133 1.28141 9.09572 1.31938 9.3027 1.41316C9.62637 1.55982 9.90145 1.79582 10.0956 2.09343C10.2198 2.28374 10.2899 2.48986 10.3428 2.71704C10.3934 2.93462 10.4346 3.2022 10.4841 3.52448L10.7341 5.14919C10.7998 5.57616 10.8537 5.92622 10.8727 6.2119C10.8924 6.50666 10.8795 6.7817 10.779 7.04533C10.6246 7.45013 10.3342 7.78861 9.95754 8.00277C9.71227 8.14224 9.44239 8.19676 9.14806 8.22216C8.86279 8.24677 8.50864 8.24677 8.07662 8.24676H7.68003C7.54165 8.24676 7.46594 8.24712 7.41153 8.25157L7.40538 8.2521L7.40484 8.25826C7.4004 8.31266 7.40003 8.38838 7.40003 8.52676V9.89604C7.40003 10.7893 6.6759 11.5134 5.78264 11.5134Z" fill="white"/>
</g>
</svg>
