<svg width="12" height="12" viewBox="0 0 12 12" fill="none" xmlns="http://www.w3.org/2000/svg">
<path d="M5.78215 10.7332C5.44615 10.7332 5.14166 10.5353 5.00519 10.2282L3.43684 6.69944C3.39879 6.61383 3.37892 6.56967 3.36264 6.53859L3.36119 6.53585L3.35809 6.53564C3.32308 6.53338 3.27466 6.53315 3.18097 6.53315L2.80822 6.53315C2.56222 6.53316 2.35 6.53317 2.1752 6.51889C1.9907 6.50381 1.8072 6.47053 1.63063 6.38056C1.3672 6.24634 1.15303 6.03217 1.0188 5.76874C0.928832 5.59216 0.895552 5.40866 0.880478 5.22417C0.866197 5.04937 0.866203 4.83716 0.866211 4.59116V2.4085C0.866203 2.16251 0.866197 1.95027 0.880478 1.77547C0.895552 1.59098 0.928832 1.40748 1.0188 1.2309C1.15303 0.967474 1.3672 0.753301 1.63063 0.619079C1.8072 0.529108 1.9907 0.495827 2.1752 0.480753C2.35 0.466472 2.56222 0.466479 2.80821 0.466488C3.02434 0.466488 3.19954 0.641692 3.19954 0.857818L3.19954 4.66649C3.19954 4.92422 3.40848 5.13315 3.66621 5.13315C3.92394 5.13315 4.13288 4.92422 4.13288 4.66649L4.13288 1.21315C4.13288 0.951797 4.13288 0.821117 4.18374 0.721292C4.22848 0.633483 4.29987 0.562092 4.38768 0.517351C4.48751 0.466488 4.61819 0.466488 4.87954 0.466488H7.82869C8.15478 0.466482 8.42551 0.466478 8.64827 0.483434C8.88084 0.501138 9.09523 0.539103 9.30221 0.632891C9.62588 0.779551 9.90096 1.01555 10.0951 1.31315C10.2193 1.50347 10.2894 1.70959 10.3423 1.93677C10.3929 2.15435 10.4341 2.42192 10.4837 2.74421L10.7336 4.36892C10.7993 4.79589 10.8532 5.14594 10.8722 5.43163C10.8919 5.72639 10.879 6.00142 10.7785 6.26505C10.6241 6.66985 10.3337 7.00834 9.95706 7.22249C9.71178 7.36196 9.4419 7.41649 9.14758 7.44189C8.86231 7.4665 8.50815 7.46649 8.07613 7.46649H7.67955C7.54117 7.46649 7.46545 7.46685 7.41104 7.4713L7.40489 7.47183L7.40435 7.47798C7.39991 7.53239 7.39955 7.60811 7.39955 7.74649V9.11576C7.39955 10.009 6.67541 10.7332 5.78215 10.7332Z" fill="#E61E1E"/>
</svg>
