<svg width="16" height="16" viewBox="0 0 16 16" fill="none" xmlns="http://www.w3.org/2000/svg">
<path d="M7.68928 0.666748C7.20927 0.666748 6.77429 0.949434 6.57934 1.38807L4.33883 6.4292C4.28448 6.5515 4.25609 6.61458 4.23283 6.65898L4.23076 6.6629L4.22634 6.6632C4.17631 6.66643 4.10714 6.66675 3.97331 6.66675L3.44081 6.66675C3.08938 6.66673 2.7862 6.66672 2.53649 6.68713C2.27292 6.70866 2.01078 6.75621 1.75852 6.88473C1.3822 7.07648 1.07624 7.38244 0.884493 7.75877C0.755963 8.01102 0.708419 8.27317 0.686885 8.53673C0.666483 8.78644 0.666493 9.0896 0.666504 9.44102V12.5591C0.666493 12.9105 0.666483 13.2137 0.686885 13.4634C0.708419 13.727 0.755963 13.9891 0.884493 14.2414C1.07624 14.6177 1.3822 14.9237 1.75852 15.1154C2.01078 15.244 2.27292 15.2915 2.53649 15.313C2.7862 15.3334 3.08937 15.3334 3.44079 15.3334C3.74955 15.3334 3.99984 15.0831 3.99984 14.7744L3.99984 9.33341C3.99984 8.96522 4.29831 8.66675 4.6665 8.66675C5.03469 8.66675 5.33317 8.96522 5.33317 9.33341L5.33317 14.2667C5.33317 14.6401 5.33317 14.8268 5.40583 14.9694C5.46975 15.0948 5.57174 15.1968 5.69718 15.2608C5.83979 15.3334 6.02647 15.3334 6.39984 15.3334H10.6129C11.0787 15.3334 11.4655 15.3334 11.7837 15.3092C12.116 15.2839 12.4222 15.2297 12.7179 15.0957C13.1803 14.8862 13.5733 14.549 13.8507 14.1239C14.0281 13.852 14.1282 13.5576 14.2038 13.233C14.2761 12.9222 14.3349 12.5399 14.4057 12.0795L14.7628 9.75851C14.8566 9.14856 14.9336 8.64848 14.9608 8.24036C14.9889 7.81927 14.9705 7.42636 14.8269 7.04975C14.6063 6.47147 14.1914 5.98791 13.6534 5.68198C13.303 5.48273 12.9175 5.40484 12.497 5.36856C12.0895 5.3334 11.5836 5.33341 10.9664 5.33341H10.3998C10.2022 5.33341 10.094 5.3329 10.0163 5.32655L10.0075 5.32578L10.0067 5.31699C10.0004 5.23927 9.99984 5.1311 9.99984 4.93341V2.97731C9.99984 1.70122 8.96537 0.666748 7.68928 0.666748Z" fill="#FF681F"/>
</svg>
