<svg width="16" height="16" viewBox="0 0 16 16" fill="none" xmlns="http://www.w3.org/2000/svg">
<path d="M7.68928 15.3333C7.20927 15.3333 6.77429 15.0506 6.57934 14.6119L4.33883 9.5708C4.28448 9.4485 4.25609 9.38542 4.23283 9.34102L4.23076 9.3371L4.22634 9.3368C4.17631 9.33357 4.10714 9.33325 3.97331 9.33325L3.44081 9.33325C3.08938 9.33327 2.7862 9.33328 2.53649 9.31287C2.27292 9.29134 2.01078 9.24379 1.75852 9.11527C1.3822 8.92352 1.07624 8.61756 0.884493 8.24123C0.755963 7.98898 0.708419 7.72683 0.686885 7.46327C0.666483 7.21356 0.666493 6.9104 0.666504 6.55898V3.44089C0.666493 3.08947 0.666483 2.78627 0.686885 2.53657C0.708419 2.273 0.755963 2.01086 0.884493 1.75861C1.07624 1.38228 1.3822 1.07632 1.75852 0.884573C2.01078 0.756043 2.27292 0.7085 2.53649 0.686966C2.7862 0.666563 3.08937 0.666573 3.44079 0.666586C3.74955 0.666586 3.99984 0.916879 3.99984 1.22563L3.99984 6.66659C3.99984 7.03478 4.29831 7.33325 4.6665 7.33325C5.03469 7.33325 5.33317 7.03478 5.33317 6.66659L5.33317 1.73325C5.33317 1.35988 5.33317 1.1732 5.40583 1.03059C5.46975 0.905151 5.57174 0.803164 5.69718 0.739249C5.83979 0.666586 6.02647 0.666586 6.39984 0.666586H10.6129C11.0787 0.666579 11.4655 0.666572 11.7837 0.690795C12.116 0.716087 12.4222 0.770323 12.7179 0.904305C13.1803 1.11382 13.5733 1.45096 13.8507 1.87611C14.0281 2.14799 14.1282 2.44245 14.2038 2.76699C14.2761 3.07781 14.3349 3.46007 14.4057 3.92048L14.7628 6.24149C14.8566 6.85144 14.9336 7.35152 14.9608 7.75964C14.9889 8.18073 14.9705 8.57364 14.8269 8.95025C14.6063 9.52853 14.1914 10.0121 13.6534 10.318C13.303 10.5173 12.9175 10.5952 12.497 10.6314C12.0895 10.6666 11.5836 10.6666 10.9664 10.6666H10.3998C10.2022 10.6666 10.094 10.6671 10.0163 10.6735L10.0075 10.6742L10.0067 10.683C10.0004 10.7607 9.99984 10.8689 9.99984 11.0666V13.0227C9.99984 14.2988 8.96537 15.3333 7.68928 15.3333Z" fill="#FF681F"/>
</svg>
