<svg width="12" height="12" viewBox="0 0 12 12" fill="none" xmlns="http://www.w3.org/2000/svg">
<path d="M5.58293 0.466797C5.24693 0.466797 4.94244 0.664677 4.80597 0.971723L3.23762 4.50052C3.19957 4.58613 3.1797 4.63028 3.16342 4.66136L3.16197 4.6641L3.15888 4.66431C3.12386 4.66657 3.07544 4.6668 2.98175 4.6668L2.60901 4.6668C2.363 4.66679 2.15078 4.66678 1.97598 4.68106C1.79149 4.69614 1.60798 4.72942 1.43141 4.81939C1.16798 4.95361 0.953807 5.16778 0.819584 5.43121C0.729614 5.60779 0.696333 5.79129 0.681259 5.97578C0.666978 6.15058 0.666985 6.3628 0.666993 6.60879V8.79145C0.666985 9.03745 0.666978 9.24968 0.681259 9.42448C0.696333 9.60897 0.729614 9.79247 0.819584 9.96905C0.953807 10.2325 1.16798 10.4466 1.43141 10.5809C1.60798 10.6708 1.79149 10.7041 1.97598 10.7192C2.15078 10.7335 2.363 10.7335 2.609 10.7335C2.82512 10.7335 3.00033 10.5583 3.00033 10.3421L3.00033 6.53346C3.00033 6.27573 3.20926 6.0668 3.46699 6.0668C3.72473 6.0668 3.93366 6.27573 3.93366 6.53346L3.93366 9.9868C3.93366 10.2482 3.93366 10.3788 3.98452 10.4787C4.02926 10.5665 4.10065 10.6379 4.18846 10.6826C4.28829 10.7335 4.41897 10.7335 4.68033 10.7335H7.62947C7.95556 10.7335 8.2263 10.7335 8.44905 10.7165C8.68162 10.6988 8.89601 10.6608 9.10299 10.5671C9.42666 10.4204 9.70175 10.1844 9.89592 9.8868C10.0201 9.69648 10.0902 9.49036 10.1431 9.26318C10.1937 9.0456 10.2349 8.77803 10.2844 8.45574L10.5344 6.83103C10.6001 6.40407 10.6539 6.05401 10.673 5.76833C10.6927 5.47357 10.6798 5.19853 10.5792 4.9349C10.4248 4.5301 10.1345 4.19161 9.75784 3.97746C9.51256 3.83799 9.24268 3.78346 8.94836 3.75807C8.66309 3.73345 8.30893 3.73346 7.87691 3.73346H7.48033C7.34195 3.73346 7.26623 3.7331 7.21182 3.72866L7.20567 3.72812L7.20513 3.72197C7.20069 3.66756 7.20033 3.59184 7.20033 3.45346V2.08419C7.20033 1.19093 6.4762 0.466797 5.58293 0.466797Z" fill="#E61E1E"/>
</svg>
