<svg width="15" height="15" viewBox="0 0 15 15" fill="none" xmlns="http://www.w3.org/2000/svg">
<g opacity="0.5" clip-path="url(#clip0_770_5982)">
<path d="M1.79993 2.75993C1.79993 2.4239 1.79993 2.25588 1.86532 2.12753C1.92285 2.01464 2.01464 1.92285 2.12753 1.86532C2.25588 1.79993 2.4239 1.79993 2.75993 1.79993H12.8399C13.176 1.79993 13.344 1.79993 13.4723 1.86532C13.5852 1.92285 13.677 2.01464 13.7345 2.12753C13.7999 2.25588 13.7999 2.4239 13.7999 2.75993V3.16156C13.7999 3.32284 13.7999 3.40348 13.7802 3.47846C13.7628 3.54491 13.734 3.60787 13.6952 3.66458C13.6515 3.72859 13.5905 3.7814 13.4687 3.88702L9.63119 7.21283C9.50932 7.31846 9.44838 7.37127 9.40462 7.43527C9.36585 7.49199 9.3371 7.55494 9.31963 7.62139C9.29993 7.69637 9.29993 7.77701 9.29993 7.93829V11.075C9.29993 11.1923 9.29993 11.251 9.281 11.3017C9.26428 11.3465 9.23708 11.3867 9.20168 11.4188C9.16161 11.4553 9.10714 11.477 8.99819 11.5206L6.95819 12.3366C6.73767 12.4248 6.62741 12.4689 6.53889 12.4505C6.46149 12.4345 6.39356 12.3885 6.34988 12.3226C6.29993 12.2472 6.29993 12.1285 6.29993 11.891V7.93829C6.29993 7.77701 6.29993 7.69637 6.28022 7.62139C6.26276 7.55494 6.23401 7.49199 6.19523 7.43527C6.15147 7.37127 6.09054 7.31846 5.96866 7.21283L2.13119 3.88702C2.00932 3.7814 1.94838 3.72859 1.90462 3.66458C1.86585 3.60787 1.8371 3.54491 1.81963 3.47846C1.79993 3.40348 1.79993 3.32284 1.79993 3.16156V2.75993Z" fill="white" stroke="white" stroke-width="1.2" stroke-linecap="round" stroke-linejoin="round"/>
</g>
<defs>
<clipPath id="clip0_770_5982">
<rect width="14.4" height="14.4" fill="white" transform="translate(0.599976)"/>
</clipPath>
</defs>
</svg>
