<svg width="86" height="27" viewBox="0 0 86 27" fill="none" xmlns="http://www.w3.org/2000/svg">
<path d="M7.11797 21.4169C5.16047 21.4169 3.60447 20.7624 2.49397 19.4714C1.39297 18.1919 0.834473 16.7234 0.834473 15.1074C0.834473 13.5874 1.30797 12.2134 2.24147 11.0234C3.42997 9.5039 5.04197 8.7334 7.03297 8.7334C9.02397 8.7334 10.738 9.5214 11.962 11.0759C12.8315 12.1734 13.28 13.5574 13.295 15.1899L13.2975 15.4514H2.89547C2.97047 16.6034 3.37447 17.5664 4.09947 18.3169C4.88647 19.1309 5.83197 19.5269 6.98997 19.5269C7.54597 19.5269 8.09397 19.4289 8.61997 19.2354C9.14447 19.0429 9.59547 18.7844 9.96097 18.4674C10.329 18.1479 10.4025 18.0699 10.689 17.6979L10.819 17.4819C11.09 17.0309 11.666 16.8694 12.132 17.1144C12.613 17.3674 12.8015 17.9599 12.555 18.4444L12.4785 18.5944C12.0775 19.1714 11.9615 19.3139 11.402 19.8284C10.841 20.3444 10.201 20.7429 9.49947 21.0124C8.79847 21.2814 7.99747 21.4174 7.11797 21.4174V21.4169ZM11.058 13.6464C10.8755 13.0399 10.6305 12.5424 10.328 12.1644C9.97497 11.7234 9.49947 11.3614 8.91447 11.0889C8.32697 10.8159 7.70097 10.6774 7.05447 10.6774C5.98997 10.6774 5.06297 11.0234 4.29947 11.7064C3.80547 12.1469 3.41147 12.7984 3.12647 13.6464H11.0585H11.058Z" fill="white"/>
<path d="M16.2525 4.86292H16.252C15.6978 4.86292 15.2485 5.3122 15.2485 5.86641V20.4134C15.2485 20.9676 15.6978 21.4169 16.252 21.4169H16.2525C16.8068 21.4169 17.256 20.9676 17.256 20.4134V5.86641C17.256 5.3122 16.8068 4.86292 16.2525 4.86292Z" fill="white"/>
<path d="M25.3635 21.4169C23.406 21.4169 21.85 20.7624 20.7395 19.4714C19.6385 18.1919 19.08 16.7234 19.08 15.1074C19.08 13.5874 19.5535 12.2134 20.487 11.0234C21.6755 9.5039 23.2875 8.7334 25.2785 8.7334C27.2695 8.7334 28.9835 9.5214 30.2075 11.0759C31.077 12.1734 31.5255 13.5574 31.5405 15.1899L31.543 15.4514H21.1415C21.2165 16.6034 21.6205 17.5664 22.3455 18.3169C23.1325 19.1309 24.078 19.5269 25.236 19.5269C25.792 19.5269 26.34 19.4289 26.866 19.2354C27.3905 19.0429 27.8415 18.7844 28.207 18.4674C28.575 18.1479 28.6485 18.0699 28.935 17.6979L29.065 17.4819C29.336 17.0309 29.912 16.8694 30.378 17.1144C30.859 17.3674 31.0475 17.9599 30.801 18.4444L30.7245 18.5944C30.3235 19.1714 30.2075 19.3139 29.648 19.8284C29.087 20.3444 28.447 20.7429 27.7455 21.0124C27.0445 21.2814 26.2435 21.4174 25.364 21.4174L25.3635 21.4169ZM29.303 13.6464C29.1205 13.0399 28.8755 12.5424 28.573 12.1644C28.22 11.7234 27.7445 11.3614 27.1595 11.0889C26.572 10.8159 25.946 10.6774 25.2995 10.6774C24.235 10.6774 23.308 11.0234 22.5445 11.7064C22.0505 12.1469 21.6565 12.7984 21.3715 13.6464H29.3035H29.303Z" fill="white"/>
<path d="M38.4305 21.141L33.6305 10.7175C33.332 10.069 33.8055 9.32898 34.5195 9.32898C34.9015 9.32898 35.249 9.55148 35.4085 9.89848L38.8625 17.399L42.273 9.90248C42.432 9.55298 42.7805 9.32898 43.164 9.32898H43.175C43.888 9.32898 44.362 10.067 44.065 10.7155L39.2935 21.14C39.216 21.309 39.0475 21.417 38.862 21.417C38.6765 21.417 38.508 21.309 38.4305 21.141Z" fill="white"/>
<path d="M53.4741 15.5775C51.9406 15.5775 50.6616 17.228 50.3671 18.925C50.6206 18.3655 50.9486 18.028 51.3066 18.028C52.1036 18.028 52.4756 19.7115 52.7486 21.7465C52.8241 22.3105 53.3821 26.073 53.4266 26.78C53.4291 26.78 53.4321 26.78 53.4346 26.78C53.4866 25.9665 53.9761 22.3995 54.0666 21.747C54.3556 19.669 54.7131 18.0285 55.5101 18.0285C55.9646 18.0285 56.3706 18.5705 56.6351 19.4165C56.5241 17.482 55.1521 15.578 53.4741 15.578V15.5775Z" fill="#FBB03B"/>
<path d="M53.501 2.339C56.501 4.858 58.3375 8.9225 58.388 13.282C57.0605 11.656 55.3451 10.7685 53.5001 10.7685C51.6551 10.7685 49.9405 11.6555 48.613 13.2805C48.6635 8.921 50.5005 4.857 53.5005 2.339M53.501 0C49.458 2.688 46.7375 7.7125 46.7375 13.466C46.7375 14.8955 46.9055 16.2805 47.2205 17.596C47.444 18.528 47.74 19.426 48.1035 20.2795C48.2305 16.0305 50.598 12.6435 53.5005 12.6435C56.403 12.6435 58.771 16.0315 58.8975 20.2815C59.3985 19.1055 59.773 17.845 60.002 16.525C60.175 15.536 60.2645 14.5125 60.2645 13.4655C60.264 7.7125 57.544 2.689 53.501 0Z" fill="#F27024"/>
<path d="M63.1405 19.5425L62.3425 1.0395C62.312 0.4745 62.762 0 63.328 0C63.8935 0 64.3435 0.4745 64.3135 1.0395L63.5155 19.5425H63.1405Z" fill="#F27024"/>
<path d="M67.5325 20.4134V11.1344H65.5015V9.3294H67.5325V5.8669C67.5325 5.3124 67.982 4.8634 68.536 4.8634C69.0905 4.8634 69.5395 5.3129 69.5395 5.8669V9.3294H72.65V11.1344H69.5395V20.4134C69.5395 20.9679 69.09 21.4169 68.536 21.4169C67.9815 21.4169 67.5325 20.9674 67.5325 20.4134Z" fill="white"/>
<path d="M79.8205 21.4169C77.863 21.4169 76.3075 20.7624 75.1965 19.4714C74.0955 18.1919 73.5375 16.7239 73.5375 15.1074C73.5375 13.5874 74.011 12.2134 74.9445 11.0234C76.133 9.5039 77.745 8.7334 79.736 8.7334C81.727 8.7334 83.441 9.5214 84.6655 11.0759C85.535 12.1729 85.9835 13.5574 85.9985 15.1899L86.001 15.4514H75.5995C75.6745 16.6034 76.079 17.5664 76.8035 18.3169C77.5905 19.1309 78.5355 19.5269 79.694 19.5269C80.25 19.5269 80.7985 19.4289 81.324 19.2354C81.8485 19.0429 82.2995 18.7844 82.665 18.4674C83.033 18.1479 83.126 18.0909 83.442 17.6164L83.523 17.4819C83.794 17.0309 84.37 16.8694 84.836 17.1144C85.317 17.3674 85.5055 17.9599 85.259 18.4444L85.191 18.5779C84.8865 18.9999 84.6655 19.3139 84.106 19.8284C83.545 20.3444 82.905 20.7429 82.203 21.0124C81.502 21.2814 80.701 21.4174 79.8215 21.4174L79.8205 21.4169ZM83.7605 13.6464C83.578 13.0399 83.333 12.5424 83.0305 12.1644C82.6775 11.7234 82.202 11.3614 81.617 11.0889C81.029 10.8159 80.4035 10.6774 79.757 10.6774C78.6925 10.6774 77.7655 11.0234 77.002 11.7064C76.5075 12.1469 76.114 12.7989 75.829 13.6464H83.761H83.7605Z" fill="white"/>
</svg>
