<svg width="18" height="18" viewBox="0 0 18 18" fill="none" xmlns="http://www.w3.org/2000/svg">
<path d="M8.25 3.00005H5.1C3.83988 3.00005 3.20982 3.00005 2.72852 3.24528C2.30516 3.461 1.96095 3.80521 1.74524 4.22857C1.5 4.70987 1.5 5.33993 1.5 6.60005V12.9C1.5 14.1602 1.5 14.7902 1.74524 15.2715C1.96095 15.6949 2.30516 16.0391 2.72852 16.2548C3.20982 16.5 3.83988 16.5 5.1 16.5H11.4C12.6601 16.5 13.2902 16.5 13.7715 16.2548C14.1948 16.0391 14.539 15.6949 14.7548 15.2715C15 14.7902 15 14.1602 15 12.9V9.75005M5.99998 12H7.25589C7.62277 12 7.80622 12 7.97885 11.9586C8.1319 11.9219 8.27822 11.8613 8.41243 11.779C8.5638 11.6862 8.69352 11.5565 8.95294 11.2971L16.125 4.12505C16.7463 3.50373 16.7463 2.49637 16.125 1.87505C15.5037 1.25373 14.4963 1.25373 13.875 1.87505L6.70293 9.0471C6.4435 9.30653 6.31378 9.43625 6.22102 9.58762C6.13878 9.72183 6.07817 9.86815 6.04143 10.0212C5.99998 10.1938 5.99998 10.3773 5.99998 10.7442V12Z" stroke="white" stroke-width="1.5" stroke-linecap="round" stroke-linejoin="round"/>
</svg>
