<svg width="17" height="18" viewBox="0 0 17 18" fill="none" xmlns="http://www.w3.org/2000/svg">
<g opacity="0.5">
<g clip-path="url(#clip0_770_5972)">
<path d="M3.1499 16V12.5M3.1499 5.5V2M1.3999 3.75H4.8999M1.3999 14.25H4.8999M9.0999 2.7L7.88598 5.8562C7.68857 6.36946 7.58987 6.62609 7.43637 6.84196C7.30034 7.03328 7.13318 7.20043 6.94186 7.33647C6.726 7.48996 6.46937 7.58867 5.9561 7.78608L2.7999 9L5.95611 10.2139C6.46937 10.4113 6.726 10.51 6.94186 10.6635C7.13318 10.7996 7.30034 10.9667 7.43637 11.158C7.58987 11.3739 7.68857 11.6305 7.88598 12.1438L9.0999 15.3L10.3138 12.1438C10.5112 11.6305 10.6099 11.3739 10.7634 11.158C10.8995 10.9667 11.0666 10.7996 11.2579 10.6635C11.4738 10.51 11.7304 10.4113 12.2437 10.2139L15.3999 9L12.2437 7.78607C11.7304 7.58867 11.4738 7.48996 11.2579 7.33647C11.0666 7.20043 10.8995 7.03328 10.7634 6.84196C10.6099 6.6261 10.5112 6.36946 10.3138 5.8562L9.0999 2.7Z" stroke="white" stroke-width="1.4" stroke-linecap="round" stroke-linejoin="round"/>
</g>
<rect x="0.35" y="0.949976" width="16.1" height="16.1" stroke="white" stroke-width="0.7"/>
</g>
<defs>
<clipPath id="clip0_770_5972">
<rect y="0.599976" width="16.8" height="16.8" fill="white"/>
</clipPath>
</defs>
</svg>
