<svg width="15" height="15" viewBox="0 0 15 15" fill="none" xmlns="http://www.w3.org/2000/svg">
<g clip-path="url(#clip0_729_5191)">
<path d="M1.79993 2.75996C1.79993 2.42393 1.79993 2.25591 1.86532 2.12756C1.92285 2.01467 2.01464 1.92288 2.12753 1.86535C2.25588 1.79996 2.4239 1.79996 2.75993 1.79996H12.8399C13.176 1.79996 13.344 1.79996 13.4723 1.86535C13.5852 1.92288 13.677 2.01467 13.7345 2.12756C13.7999 2.25591 13.7999 2.42393 13.7999 2.75996V3.16159C13.7999 3.32287 13.7999 3.40351 13.7802 3.47849C13.7628 3.54494 13.734 3.6079 13.6952 3.66461C13.6515 3.72862 13.5905 3.78143 13.4687 3.88706L9.63119 7.21286C9.50932 7.31849 9.44838 7.3713 9.40462 7.4353C9.36585 7.49202 9.3371 7.55497 9.31963 7.62142C9.29993 7.6964 9.29993 7.77704 9.29993 7.93832V11.075C9.29993 11.1923 9.29993 11.251 9.281 11.3017C9.26428 11.3465 9.23708 11.3867 9.20168 11.4189C9.16161 11.4553 9.10714 11.4771 8.99819 11.5207L6.95819 12.3367C6.73767 12.4249 6.62741 12.469 6.53889 12.4506C6.46149 12.4345 6.39356 12.3885 6.34988 12.3226C6.29993 12.2473 6.29993 12.1285 6.29993 11.891V7.93832C6.29993 7.77704 6.29993 7.6964 6.28022 7.62142C6.26276 7.55497 6.23401 7.49202 6.19523 7.4353C6.15147 7.3713 6.09054 7.31849 5.96866 7.21286L2.13119 3.88706C2.00932 3.78143 1.94838 3.72862 1.90462 3.66461C1.86585 3.6079 1.8371 3.54494 1.81963 3.47849C1.79993 3.40351 1.79993 3.32287 1.79993 3.16159V2.75996Z" fill="#939393" stroke="#939393" stroke-width="1.2" stroke-linecap="round" stroke-linejoin="round"/>
</g>
<defs>
<clipPath id="clip0_729_5191">
<rect width="14.4" height="14.4" fill="white" transform="translate(0.599976)"/>
</clipPath>
</defs>
</svg>
