<svg width="86" height="27" viewBox="0 0 86 27" fill="none" xmlns="http://www.w3.org/2000/svg">
<path d="M7.11799 21.417C5.16049 21.417 3.60449 20.7625 2.49399 19.4715C1.39299 18.192 0.834492 16.7235 0.834492 15.1075C0.834492 13.5875 1.30799 12.2135 2.24149 11.0235C3.42999 9.50396 5.04199 8.73346 7.03299 8.73346C9.02399 8.73346 10.738 9.52146 11.962 11.076C12.8315 12.1735 13.28 13.5575 13.295 15.19L13.2975 15.4515H2.89549C2.97049 16.6035 3.37449 17.5665 4.09949 18.317C4.88649 19.131 5.83199 19.527 6.98999 19.527C7.54599 19.527 8.09399 19.429 8.61999 19.2355C9.14449 19.043 9.59549 18.7845 9.96099 18.4675C10.329 18.148 10.4025 18.07 10.689 17.698L10.819 17.482C11.09 17.031 11.666 16.8695 12.132 17.1145C12.613 17.3675 12.8015 17.96 12.555 18.4445L12.4785 18.5945C12.0775 19.1715 11.9615 19.314 11.402 19.8285C10.841 20.3445 10.201 20.743 9.49949 21.0125C8.79849 21.2815 7.99749 21.4175 7.11799 21.4175V21.417ZM11.058 13.6465C10.8755 13.04 10.6305 12.5425 10.328 12.1645C9.97499 11.7235 9.49949 11.3615 8.91449 11.089C8.32699 10.816 7.70099 10.6775 7.05449 10.6775C5.98999 10.6775 5.06299 11.0235 4.29949 11.7065C3.80549 12.147 3.41149 12.7985 3.12649 13.6465H11.0585H11.058Z" fill="#1E1E1E"/>
<path d="M16.2526 4.86298H16.2521C15.6978 4.86298 15.2486 5.31226 15.2486 5.86648V20.4135C15.2486 20.9677 15.6978 21.417 16.2521 21.417H16.2526C16.8068 21.417 17.2561 20.9677 17.2561 20.4135V5.86648C17.2561 5.31226 16.8068 4.86298 16.2526 4.86298Z" fill="#1E1E1E"/>
<path d="M25.3635 21.417C23.406 21.417 21.85 20.7625 20.7395 19.4715C19.6385 18.192 19.08 16.7235 19.08 15.1075C19.08 13.5875 19.5535 12.2135 20.487 11.0235C21.6755 9.50396 23.2875 8.73346 25.2785 8.73346C27.2695 8.73346 28.9835 9.52146 30.2075 11.076C31.077 12.1735 31.5255 13.5575 31.5405 15.19L31.543 15.4515H21.1415C21.2165 16.6035 21.6205 17.5665 22.3455 18.317C23.1325 19.131 24.078 19.527 25.236 19.527C25.792 19.527 26.34 19.429 26.866 19.2355C27.3905 19.043 27.8415 18.7845 28.207 18.4675C28.575 18.148 28.6485 18.07 28.935 17.698L29.065 17.482C29.336 17.031 29.912 16.8695 30.378 17.1145C30.859 17.3675 31.0475 17.96 30.801 18.4445L30.7245 18.5945C30.3235 19.1715 30.2075 19.314 29.648 19.8285C29.087 20.3445 28.447 20.743 27.7455 21.0125C27.0445 21.2815 26.2435 21.4175 25.364 21.4175L25.3635 21.417ZM29.303 13.6465C29.1205 13.04 28.8755 12.5425 28.573 12.1645C28.22 11.7235 27.7445 11.3615 27.1595 11.089C26.572 10.816 25.946 10.6775 25.2995 10.6775C24.235 10.6775 23.308 11.0235 22.5445 11.7065C22.0505 12.147 21.6565 12.7985 21.3715 13.6465H29.3035H29.303Z" fill="#1E1E1E"/>
<path d="M38.4305 21.141L33.6305 10.7175C33.332 10.069 33.8055 9.32898 34.5195 9.32898C34.9015 9.32898 35.249 9.55148 35.4085 9.89848L38.8625 17.399L42.273 9.90248C42.432 9.55298 42.7805 9.32898 43.164 9.32898H43.175C43.888 9.32898 44.362 10.067 44.065 10.7155L39.2935 21.14C39.216 21.309 39.0475 21.417 38.862 21.417C38.6765 21.417 38.508 21.309 38.4305 21.141Z" fill="#1E1E1E"/>
<path d="M53.4741 15.5775C51.9406 15.5775 50.6616 17.228 50.3671 18.925C50.6206 18.3655 50.9486 18.028 51.3066 18.028C52.1036 18.028 52.4756 19.7115 52.7486 21.7465C52.8241 22.3105 53.3821 26.073 53.4266 26.78C53.4291 26.78 53.4321 26.78 53.4346 26.78C53.4866 25.9665 53.9761 22.3995 54.0666 21.747C54.3556 19.669 54.7131 18.0285 55.5101 18.0285C55.9646 18.0285 56.3706 18.5705 56.6351 19.4165C56.5241 17.482 55.1521 15.578 53.4741 15.578V15.5775Z" fill="#FBB03B"/>
<path d="M53.5011 2.33897C56.5011 4.85797 58.3376 8.92247 58.3881 13.282C57.0606 11.656 55.3451 10.7685 53.5001 10.7685C51.6551 10.7685 49.9406 11.6555 48.6131 13.2805C48.6636 8.92097 50.5006 4.85697 53.5006 2.33897M53.5011 -3.05176e-05C49.4581 2.68797 46.7376 7.71247 46.7376 13.466C46.7376 14.8955 46.9056 16.2805 47.2206 17.596C47.4441 18.528 47.7401 19.426 48.1036 20.2795C48.2306 16.0305 50.5981 12.6435 53.5006 12.6435C56.4031 12.6435 58.7711 16.0315 58.8976 20.2815C59.3986 19.1055 59.7731 17.845 60.0021 16.525C60.1751 15.536 60.2646 14.5125 60.2646 13.4655C60.2641 7.71247 57.5441 2.68897 53.5011 -3.05176e-05Z" fill="#F27024"/>
<path d="M63.1405 19.5425L62.3425 1.03947C62.312 0.474469 62.762 -3.05176e-05 63.328 -3.05176e-05C63.8935 -3.05176e-05 64.3435 0.474469 64.3135 1.03947L63.5155 19.5425H63.1405Z" fill="#F27024"/>
<path d="M67.5325 20.4135V11.1345H65.5015V9.32946H67.5325V5.86696C67.5325 5.31246 67.982 4.86346 68.536 4.86346C69.0905 4.86346 69.5395 5.31296 69.5395 5.86696V9.32946H72.65V11.1345H69.5395V20.4135C69.5395 20.968 69.09 21.417 68.536 21.417C67.9815 21.417 67.5325 20.9675 67.5325 20.4135Z" fill="#1E1E1E"/>
<path d="M79.8205 21.417C77.863 21.417 76.3075 20.7625 75.1965 19.4715C74.0955 18.192 73.5375 16.724 73.5375 15.1075C73.5375 13.5875 74.011 12.2135 74.9445 11.0235C76.133 9.50396 77.745 8.73346 79.736 8.73346C81.727 8.73346 83.441 9.52146 84.6655 11.076C85.535 12.173 85.9835 13.5575 85.9985 15.19L86.001 15.4515H75.5995C75.6745 16.6035 76.079 17.5665 76.8035 18.317C77.5905 19.131 78.5355 19.527 79.694 19.527C80.25 19.527 80.7985 19.429 81.324 19.2355C81.8485 19.043 82.2995 18.7845 82.665 18.4675C83.033 18.148 83.126 18.091 83.442 17.6165L83.523 17.482C83.794 17.031 84.37 16.8695 84.836 17.1145C85.317 17.3675 85.5055 17.96 85.259 18.4445L85.191 18.578C84.8865 19 84.6655 19.314 84.106 19.8285C83.545 20.3445 82.905 20.743 82.203 21.0125C81.502 21.2815 80.701 21.4175 79.8215 21.4175L79.8205 21.417ZM83.7605 13.6465C83.578 13.04 83.333 12.5425 83.0305 12.1645C82.6775 11.7235 82.202 11.3615 81.617 11.089C81.029 10.816 80.4035 10.6775 79.757 10.6775C78.6925 10.6775 77.7655 11.0235 77.002 11.7065C76.5075 12.147 76.114 12.799 75.829 13.6465H83.761H83.7605Z" fill="#1E1E1E"/>
</svg>
