<svg width="17" height="16" viewBox="0 0 17 16" fill="none" xmlns="http://www.w3.org/2000/svg">
<path d="M3.1499 15V11.5M3.1499 4.50003V1.00003M1.3999 2.75003H4.8999M1.3999 13.25H4.8999M9.0999 1.70003L7.88598 4.85623C7.68857 5.36949 7.58987 5.62613 7.43637 5.84199C7.30034 6.03331 7.13318 6.20046 6.94186 6.3365C6.726 6.48999 6.46937 6.5887 5.9561 6.78611L2.7999 8.00003L5.95611 9.21395C6.46937 9.41136 6.726 9.51007 6.94186 9.66356C7.13318 9.7996 7.30034 9.96675 7.43637 10.1581C7.58987 10.3739 7.68857 10.6306 7.88598 11.1438L9.0999 14.3L10.3138 11.1438C10.5112 10.6306 10.6099 10.3739 10.7634 10.1581C10.8995 9.96675 11.0666 9.7996 11.2579 9.66356C11.4738 9.51007 11.7304 9.41136 12.2437 9.21395L15.3999 8.00003L12.2437 6.78611C11.7304 6.5887 11.4738 6.48999 11.2579 6.3365C11.0666 6.20046 10.8995 6.03331 10.7634 5.84199C10.6099 5.62613 10.5112 5.36949 10.3138 4.85623L9.0999 1.70003Z" stroke="#212124" stroke-width="1.4" stroke-linecap="round" stroke-linejoin="round"/>
</svg>
