<svg width="11" height="11" viewBox="0 0 11 11" fill="none" xmlns="http://www.w3.org/2000/svg">
<path d="M5.58263 0.246696C5.24662 0.246696 4.94213 0.444577 4.80567 0.751623L3.23732 4.28041C3.19927 4.36603 3.1794 4.41018 3.16311 4.44126L3.16166 4.444L3.15857 4.44421C3.12355 4.44647 3.07513 4.4467 2.98145 4.4467L2.6087 4.4467C2.3627 4.44669 2.15048 4.44668 1.97568 4.46096C1.79118 4.47604 1.60768 4.50932 1.4311 4.59929C1.16767 4.73351 0.953502 4.94768 0.819279 5.21111C0.729309 5.38769 0.696028 5.57119 0.680954 5.75568C0.666673 5.93048 0.666679 6.14269 0.666687 6.38869V8.57135C0.666679 8.81734 0.666673 9.02958 0.680954 9.20438C0.696028 9.38887 0.729309 9.57237 0.819279 9.74895C0.953502 10.0124 1.16767 10.2265 1.4311 10.3608C1.60768 10.4507 1.79118 10.484 1.97568 10.4991C2.15047 10.5134 2.36269 10.5134 2.60869 10.5134C2.82482 10.5134 3.00002 10.3382 3.00002 10.122L3.00002 6.31336C3.00002 6.05563 3.20895 5.8467 3.46669 5.8467C3.72442 5.8467 3.93335 6.05563 3.93335 6.31336L3.93335 9.7667C3.93335 10.0281 3.93335 10.1587 3.98422 10.2586C4.02896 10.3464 4.10035 10.4178 4.18816 10.4625C4.28798 10.5134 4.41866 10.5134 4.68002 10.5134H7.62917C7.95526 10.5134 8.22599 10.5134 8.44874 10.4964C8.68132 10.4787 8.89571 10.4407 9.10269 10.347C9.42636 10.2003 9.70144 9.9643 9.89561 9.6667C10.0198 9.47638 10.0899 9.27026 10.1428 9.04308C10.1934 8.8255 10.2346 8.55793 10.2841 8.23564L10.5341 6.61093C10.5998 6.18397 10.6536 5.83391 10.6727 5.54823C10.6923 5.25346 10.6795 4.97843 10.5789 4.7148C10.4245 4.31 10.1341 3.97151 9.75753 3.75736C9.51226 3.61789 9.24237 3.56336 8.94805 3.53796C8.66278 3.51335 8.30863 3.51336 7.87661 3.51336H7.48002C7.34164 3.51336 7.26592 3.513 7.21152 3.50856L7.20536 3.50802L7.20483 3.50187C7.20038 3.44746 7.20002 3.37174 7.20002 3.23336V1.86409C7.20002 0.970827 6.47589 0.246696 5.58263 0.246696Z" fill="#939393"/>
</svg>
