<svg width="11" height="11" viewBox="0 0 11 11" fill="none" xmlns="http://www.w3.org/2000/svg">
<path d="M5.78264 10.5134C5.44664 10.5134 5.14215 10.3155 5.00568 10.0084L3.43733 6.47964C3.39928 6.39403 3.37941 6.34988 3.36312 6.31879L3.36168 6.31605L3.35858 6.31584C3.32356 6.31358 3.27515 6.31336 3.18146 6.31336L2.80871 6.31336C2.56271 6.31337 2.35049 6.31338 2.17569 6.29909C1.99119 6.28402 1.80769 6.25074 1.63111 6.16077C1.36769 6.02655 1.15351 5.81237 1.01929 5.54895C0.929321 5.37237 0.89604 5.18887 0.880966 5.00437C0.866685 4.82958 0.866692 4.61736 0.8667 4.37137V2.18871C0.866692 1.94271 0.866685 1.73047 0.880966 1.55568C0.89604 1.37118 0.929321 1.18768 1.01929 1.01111C1.15351 0.747678 1.36769 0.533506 1.63111 0.399283C1.80769 0.309312 1.99119 0.276032 2.17569 0.260958C2.35049 0.246676 2.5627 0.246683 2.8087 0.246692C3.02483 0.246692 3.20003 0.421897 3.20003 0.638023L3.20003 4.44669C3.20003 4.70443 3.40897 4.91336 3.6667 4.91336C3.92443 4.91336 4.13337 4.70443 4.13337 4.44669L4.13337 0.993359C4.13337 0.732001 4.13337 0.601322 4.18423 0.501497C4.22897 0.413688 4.30036 0.342297 4.38817 0.297556C4.488 0.246692 4.61868 0.246692 4.88003 0.246692H7.82918C8.15527 0.246687 8.426 0.246683 8.64876 0.263639C8.88133 0.281343 9.09572 0.319308 9.3027 0.413096C9.62637 0.559756 9.90145 0.795755 10.0956 1.09336C10.2198 1.28367 10.2899 1.4898 10.3428 1.71697C10.3934 1.93455 10.4346 2.20213 10.4841 2.52442L10.7341 4.14912C10.7998 4.57609 10.8537 4.92615 10.8727 5.21183C10.8924 5.50659 10.8795 5.78163 10.779 6.04526C10.6246 6.45006 10.3342 6.78854 9.95754 7.0027C9.71227 7.14217 9.44239 7.1967 9.14806 7.22209C8.86279 7.2467 8.50864 7.2467 8.07662 7.24669H7.68003C7.54165 7.24669 7.46594 7.24706 7.41153 7.2515L7.40538 7.25203L7.40484 7.25819C7.4004 7.31259 7.40003 7.38831 7.40003 7.52669V8.89597C7.40003 9.78923 6.6759 10.5134 5.78264 10.5134Z" fill="#2D2D2F"/>
</svg>
